<svg xmlns="http://www.w3.org/2000/svg" width="231" height="231">
    <path fill="#FFF" fill-rule="evenodd" d="M114 0c62.96 0 113.999 51.039 113.999 114 0 62.96-51.039 114-113.999 114C51.039 228 0 176.96 0 114 0 51.039 51.039 0 114 0z"/>
    <path fill="#FFF" fill-rule="evenodd" stroke="#28A5CE" stroke-linejoin="round" stroke-width="6" d="M159.417 175.276c-6.147-19.32-47.421-15.299-47.417-15.278v-.405c-.056 0-.111.004-.167.004-26.97 0-48.834-21.845-48.834-48.791 0-26.947 21.864-48.792 48.834-48.792 26.97 0 48.833 21.845 48.833 48.792 0 11.573-4.041 22.198-10.779 30.562 12.304 12.194 12.457 29.024 9.53 33.908z"/>
    <path fill="#28A5CE" fill-rule="evenodd" d="M132 115c-2.21 0-4-1.791-4-4s1.79-4 4-4c2.209 0 4 1.791 4 4s-1.791 4-4 4zm-20 0c-2.21 0-4-1.791-4-4s1.79-4 4-4c2.209 0 4 1.791 4 4s-1.791 4-4 4zm-20 0c-2.21 0-4-1.791-4-4s1.79-4 4-4c2.209 0 4 1.791 4 4s-1.791 4-4 4z"/>
</svg>
